<svg width="300" height="100" viewBox="0 0 300 100" fill="none" xmlns="http://www.w3.org/2000/svg">
<rect width="300" height="100" fill="#1E1E1E"/>
<rect width="300" height="100" fill="#34C759"/>
<path d="M55.8125 5L40.0625 96H18.625L34.4375 5H55.8125ZM82.375 5L79.4375 21.9375H5.5L8.5 5H82.375ZM114.062 5L98.3125 96H76.9375L92.75 5H114.062ZM154.812 65.1875L131.688 65.125L134.625 48.1875L155.562 48.25C158.271 48.25 160.75 47.7708 163 46.8125C165.25 45.8125 167.104 44.375 168.562 42.5C170.021 40.625 170.958 38.2917 171.375 35.5C171.75 33.2083 171.688 31.0625 171.188 29.0625C170.688 27.0625 169.708 25.4167 168.25 24.125C166.792 22.8333 164.792 22.125 162.25 22L147.312 21.9375L134.438 96H113.062L128.812 5L162.938 5.0625C168.896 5.1875 174.229 6.47917 178.938 8.9375C183.646 11.3958 187.292 14.8542 189.875 19.3125C192.458 23.7708 193.5 29.125 193 35.375C192.458 42.125 190.312 47.7083 186.562 52.125C182.854 56.5417 178.188 59.8333 172.562 62C166.979 64.125 161.062 65.1875 154.812 65.1875Z" fill="white"/>
<circle cx="246" cy="50" r="48" fill="#FFCC00"/>
<path d="M208.55 68L209.642 61.5739L226.943 47.6712C228.426 46.4354 229.682 45.3232 230.712 44.3345C231.756 43.3459 232.58 42.3778 233.184 41.4304C233.802 40.4692 234.207 39.4325 234.399 38.3203C234.605 37.0845 234.502 36.0204 234.09 35.1278C233.692 34.2216 233.046 33.5282 232.154 33.0476C231.275 32.5533 230.218 32.3061 228.982 32.3061C227.691 32.3061 226.517 32.567 225.46 33.0888C224.403 33.6106 223.524 34.3589 222.824 35.3338C222.123 36.3087 221.657 37.469 221.423 38.8146H212.958C213.425 36.0547 214.461 33.6586 216.068 31.6264C217.675 29.5942 219.693 28.022 222.123 26.9098C224.554 25.7976 227.245 25.2415 230.197 25.2415C233.218 25.2415 235.758 25.777 237.818 26.848C239.891 27.9053 241.395 29.3745 242.329 31.2557C243.262 33.1368 243.523 35.2926 243.111 37.723C242.837 39.3295 242.253 40.9086 241.361 42.4602C240.468 43.9981 239.068 45.7145 237.159 47.6094C235.25 49.4905 232.635 51.7493 229.312 54.3857L222.165 60.4205L222.103 60.7088H239.836L238.621 68H208.55ZM261.478 68.9268C257.936 68.9268 255.032 68.0618 252.766 66.3317C250.5 64.5878 248.956 62.075 248.132 58.7933C247.322 55.5116 247.301 51.5639 248.07 46.9503C248.853 42.3504 250.191 38.4302 252.086 35.1896C253.995 31.9491 256.357 29.4844 259.172 27.7955C262 26.0928 265.179 25.2415 268.708 25.2415C272.223 25.2415 275.113 26.0928 277.379 27.7955C279.645 29.4981 281.196 31.9628 282.034 35.1896C282.885 38.4164 282.926 42.3366 282.157 46.9503C281.388 51.5777 280.05 55.5322 278.141 58.8139C276.232 62.0819 273.864 64.5878 271.035 66.3317C268.207 68.0618 265.021 68.9268 261.478 68.9268ZM262.714 61.5327C265.145 61.5327 267.273 60.3175 269.099 57.8871C270.925 55.4567 272.243 51.8111 273.054 46.9503C273.589 43.7647 273.706 41.1077 273.404 38.9794C273.115 36.8374 272.463 35.2308 271.447 34.1598C270.431 33.0888 269.12 32.5533 267.513 32.5533C265.11 32.5533 262.982 33.7616 261.128 36.1783C259.288 38.5812 257.97 42.1719 257.174 46.9503C256.638 50.1908 256.521 52.8958 256.824 55.0653C257.126 57.2211 257.785 58.8414 258.801 59.9261C259.817 60.9972 261.121 61.5327 262.714 61.5327Z" fill="#594E11"/>
</svg>
