<svg width="289" height="96" viewBox="0 0 289 96" fill="none" xmlns="http://www.w3.org/2000/svg">
<rect width="289" height="96" fill="#1E1E1E"/>
<path d="M50.8125 1L35.0625 92H13.625L29.4375 1H50.8125ZM77.375 1L74.4375 17.9375H0.5L3.5 1H77.375ZM109.062 1L93.3125 92H71.9375L87.75 1H109.062ZM149.812 61.1875L126.688 61.125L129.625 44.1875L150.562 44.25C153.271 44.25 155.75 43.7708 158 42.8125C160.25 41.8125 162.104 40.375 163.562 38.5C165.021 36.625 165.958 34.2917 166.375 31.5C166.75 29.2083 166.688 27.0625 166.188 25.0625C165.688 23.0625 164.708 21.4167 163.25 20.125C161.792 18.8333 159.792 18.125 157.25 18L142.312 17.9375L129.438 92H108.062L123.812 1L157.938 1.0625C163.896 1.1875 169.229 2.47917 173.938 4.9375C178.646 7.39583 182.292 10.8542 184.875 15.3125C187.458 19.7708 188.5 25.125 188 31.375C187.458 38.125 185.312 43.7083 181.562 48.125C177.854 52.5417 173.188 55.8333 167.562 58C161.979 60.125 156.062 61.1875 149.812 61.1875Z" fill="white"/>
<circle cx="241" cy="48" r="48" fill="#FFCC00"/>
<path d="M203.55 67L204.642 60.5739L221.943 46.6712C223.426 45.4354 224.682 44.3232 225.712 43.3345C226.756 42.3459 227.58 41.3778 228.184 40.4304C228.802 39.4692 229.207 38.4325 229.399 37.3203C229.605 36.0845 229.502 35.0204 229.09 34.1278C228.692 33.2216 228.046 32.5282 227.154 32.0476C226.275 31.5533 225.218 31.3061 223.982 31.3061C222.691 31.3061 221.517 31.567 220.46 32.0888C219.403 32.6106 218.524 33.3589 217.824 34.3338C217.123 35.3087 216.657 36.469 216.423 37.8146H207.958C208.425 35.0547 209.461 32.6586 211.068 30.6264C212.675 28.5942 214.693 27.022 217.123 25.9098C219.554 24.7976 222.245 24.2415 225.197 24.2415C228.218 24.2415 230.758 24.777 232.818 25.848C234.891 26.9053 236.395 28.3745 237.329 30.2557C238.262 32.1368 238.523 34.2926 238.111 36.723C237.837 38.3295 237.253 39.9086 236.361 41.4602C235.468 42.9981 234.068 44.7145 232.159 46.6094C230.25 48.4905 227.635 50.7493 224.312 53.3857L217.165 59.4205L217.103 59.7088H234.836L233.621 67H203.55ZM256.478 67.9268C252.936 67.9268 250.032 67.0618 247.766 65.3317C245.5 63.5878 243.956 61.075 243.132 57.7933C242.322 54.5116 242.301 50.5639 243.07 45.9503C243.853 41.3504 245.191 37.4302 247.086 34.1896C248.995 30.9491 251.357 28.4844 254.172 26.7955C257 25.0928 260.179 24.2415 263.708 24.2415C267.223 24.2415 270.113 25.0928 272.379 26.7955C274.645 28.4981 276.196 30.9628 277.034 34.1896C277.885 37.4164 277.926 41.3366 277.157 45.9503C276.388 50.5777 275.05 54.5322 273.141 57.8139C271.232 61.0819 268.864 63.5878 266.035 65.3317C263.207 67.0618 260.021 67.9268 256.478 67.9268ZM257.714 60.5327C260.145 60.5327 262.273 59.3175 264.099 56.8871C265.925 54.4567 267.243 50.8111 268.054 45.9503C268.589 42.7647 268.706 40.1077 268.404 37.9794C268.115 35.8374 267.463 34.2308 266.447 33.1598C265.431 32.0888 264.12 31.5533 262.513 31.5533C260.11 31.5533 257.982 32.7616 256.128 35.1783C254.288 37.5812 252.97 41.1719 252.174 45.9503C251.638 49.1908 251.521 51.8958 251.824 54.0653C252.126 56.2211 252.785 57.8414 253.801 58.9261C254.817 59.9972 256.121 60.5327 257.714 60.5327Z" fill="#594E11"/>
</svg>
